<?xml version="1.0" standalone="no"?>
<!DOCTYPE svg PUBLIC "-//W3C//DTD SVG 20010904//EN"
 "http://www.w3.org/TR/2001/REC-SVG-20010904/DTD/svg10.dtd">
<svg version="1.0" xmlns="http://www.w3.org/2000/svg"
 width="896.000000pt" height="309.000000pt" viewBox="0 0 896.000000 309.000000"
 preserveAspectRatio="xMidYMid meet">

<g transform="translate(0.000000,309.000000) scale(0.100000,-0.100000)"
fill="#000000" stroke="none">
<path d="M7195 2835 c-209 -29 -428 -93 -632 -184 -156 -69 -153 -50 -50 -329
105 -287 91 -275 256 -198 135 64 288 117 411 143 121 26 397 25 493 -1 197
-53 357 -157 438 -284 71 -112 96 -313 56 -462 -37 -141 -141 -302 -258 -401
-175 -148 -443 -278 -684 -330 -89 -19 -278 -18 -345 3 -262 81 -274 332 -26
515 74 55 184 111 289 148 122 44 122 35 22 305 -99 271 -96 268 -206 230
-104 -35 -294 -129 -384 -190 -91 -61 -219 -180 -282 -263 -59 -77 -126 -205
-155 -297 -20 -64 -23 -96 -23 -225 0 -130 3 -159 23 -219 94 -280 302 -466
618 -552 92 -26 113 -28 294 -28 165 0 211 4 299 23 277 59 551 179 783 341
108 75 313 275 381 372 310 440 321 1011 29 1404 -175 235 -437 394 -767 464
-132 28 -433 36 -580 15z"/>
<path d="M4335 2681 l-80 -17 -3 -417 -2 -417 85 0 85 0 0 435 c0 239 -1 435
-2 434 -2 -1 -39 -9 -83 -18z"/>
<path d="M2289 2511 c-51 -52 -34 -128 35 -151 61 -20 117 21 119 86 1 29 -5
42 -31 65 -43 39 -84 38 -123 0z"/>
<path d="M731 2336 c-13 -7 -30 -24 -37 -37 -51 -92 72 -183 146 -109 43 43
32 118 -21 145 -34 18 -57 18 -88 1z"/>
<path d="M940 2322 c-63 -63 -26 -157 62 -157 113 0 118 164 6 182 -32 5 -41
1 -68 -25z"/>
<path d="M3425 2315 c-5 -2 -36 -9 -67 -15 l-58 -11 -2 -306 -3 -305 -86 -32
-85 -31 9 -32 c6 -18 14 -33 18 -33 24 0 209 65 245 86 72 41 74 52 74 388 0
276 -1 296 -17 295 -10 0 -22 -2 -28 -4z"/>
<path d="M4005 2309 c-22 -5 -50 -11 -62 -14 l-23 -5 0 -304 0 -305 -52 -19
c-29 -11 -70 -25 -91 -32 -35 -11 -38 -15 -32 -39 3 -14 10 -30 15 -35 9 -9
181 44 240 74 85 44 90 65 90 406 l0 284 -22 -1 c-13 -1 -41 -5 -63 -10z"/>
<path d="M1643 2273 l-72 -15 -3 -147 -3 -146 -683 -3 -682 -2 0 -65 0 -65
720 0 c788 0 762 -2 794 58 l15 27 1 -42 0 -43 305 0 c334 0 349 2 379 58 l15
27 1 -42 0 -43 306 0 c290 0 308 1 339 20 55 34 65 76 65 271 l0 171 -22 -5
c-13 -3 -51 -11 -85 -18 l-62 -11 -3 -147 -3 -146 -262 -3 -263 -2 0 166 0
166 -22 -5 c-13 -3 -51 -11 -85 -18 l-62 -11 -3 -147 -3 -146 -262 -3 -263 -2
0 165 c0 126 -3 165 -12 164 -7 -1 -46 -8 -85 -16z"/>
<path d="M4590 2190 l0 -70 240 0 c284 0 280 2 280 -100 l0 -60 -260 0 -260 0
0 -65 0 -65 330 0 330 0 0 123 c0 145 -10 186 -57 238 -56 61 -96 69 -370 69
l-233 0 0 -70z"/>
<path d="M2608 1685 c-57 -32 -65 -99 -19 -146 39 -38 80 -39 122 -1 80 71
-10 199 -103 147z"/>
<path d="M2844 1690 c-28 -11 -64 -58 -64 -82 0 -80 102 -125 162 -71 46 41
26 131 -33 152 -37 13 -37 13 -65 1z"/>
<path d="M202 968 l3 -593 275 -3 c163 -2 301 2 340 8 148 24 271 118 338 257
l37 78 0 255 0 255 -32 68 c-59 125 -147 206 -267 247 -54 18 -84 20 -378 20
l-318 0 2 -592z m628 436 c68 -31 133 -93 168 -159 27 -50 27 -50 27 -275 0
-225 0 -225 -27 -276 -34 -65 -124 -147 -185 -169 -38 -14 -90 -19 -245 -23
l-198 -4 0 466 0 466 203 0 c195 0 204 -1 257 -26z"/>
<path d="M4975 1465 c-5 -2 -36 -9 -67 -15 l-58 -11 0 -99 0 -99 -82 -3 -83
-3 -3 -62 -3 -63 85 0 85 0 3 -322 c3 -315 4 -324 25 -354 36 -50 71 -59 228
-59 l140 0 3 62 3 63 -116 0 -115 0 0 305 0 305 115 0 115 0 0 65 0 65 -115 0
-115 0 0 115 c0 120 -2 125 -45 110z"/>
<path d="M1603 1240 c-181 -38 -293 -202 -293 -430 0 -151 33 -251 112 -336
131 -143 401 -141 528 3 36 41 40 44 40 22 0 -32 33 -84 66 -106 22 -14 48
-18 118 -18 l91 0 3 62 3 62 -63 3 -63 3 -3 367 -2 367 -33 -6 c-17 -3 -52
-11 -77 -17 l-45 -11 -3 -53 -3 -53 -59 54 c-36 34 -77 61 -107 71 -59 21
-154 28 -210 16z m218 -141 c59 -20 96 -56 131 -126 31 -63 33 -75 33 -168 0
-87 -4 -107 -26 -155 -52 -109 -108 -145 -229 -145 -121 0 -178 36 -229 145
-22 47 -25 69 -26 155 0 83 4 108 23 149 52 114 112 156 223 156 36 0 81 -5
100 -11z"/>
<path d="M3217 1230 c-183 -65 -287 -219 -287 -424 0 -142 40 -245 127 -327
213 -202 614 -123 678 134 l7 27 -81 0 c-74 0 -81 -2 -81 -20 0 -31 -57 -87
-108 -107 -95 -36 -224 -13 -296 55 -34 32 -76 116 -76 155 l0 27 319 0 c273
0 320 2 325 15 8 22 -3 132 -21 195 -33 121 -105 209 -211 258 -79 36 -211 42
-295 12z m240 -139 c67 -34 112 -98 127 -183 l7 -38 -246 0 -245 0 0 28 c0 42
47 128 88 162 73 61 186 74 269 31z"/>
<path d="M4213 1231 c-53 -18 -106 -53 -148 -99 l-25 -27 0 68 c0 60 -2 68
-17 63 -10 -3 -46 -10 -80 -17 l-63 -12 0 -418 0 -419 79 0 80 0 3 288 3 287
27 52 c33 62 77 97 140 113 63 16 145 -7 182 -51 61 -72 61 -70 66 -389 l5
-295 80 0 80 0 3 235 c4 362 -17 469 -108 561 -76 76 -194 99 -307 60z"/>
<path d="M2511 1222 c-19 -9 -44 -30 -55 -45 -20 -28 -21 -40 -21 -415 l0
-387 80 0 80 0 3 368 2 367 140 0 140 0 0 65 0 65 -167 0 c-140 0 -174 -3
-202 -18z"/>
</g>
</svg>
