<svg xmlns="http://www.w3.org/2000/svg" width="133.962" height="24" viewBox="0 0 133.962 24">
  <g id="Group_1191" data-name="Group 1191" transform="translate(-52 -20)">
    <g id="Group_992" data-name="Group 992" transform="translate(34.217 -36.984)">
      <path id="Path_526" data-name="Path 526" d="M25.263,77.722v5.756c0,1.4,1.2,1.528,3.349,1.4V89.3c-6.374.65-8.227-1.268-8.227-5.821V77.722h-2.6V73.04h2.6V69.95l4.878-1.463V73.04h3.349v4.683Z" transform="translate(0 -8.771)" fill="#1c1c1c"/>
      <path id="Path_527" data-name="Path 527" d="M66.113,59.911a2.927,2.927,0,1,1,2.926,2.927A2.957,2.957,0,0,1,66.113,59.911Zm.488,4.358h4.878v16.26H66.6Z" transform="translate(-36.852)" fill="#1c1c1c"/>
      <path id="Path_528" data-name="Path 528" d="M93.5,94.326A8.6,8.6,0,0,1,109.462,89.9l-4.26,2.471a3.367,3.367,0,0,0-3.154-1.821,3.774,3.774,0,0,0,0,7.545,3.334,3.334,0,0,0,3.154-1.821l4.26,2.439a8.3,8.3,0,0,1-7.35,4.2A8.424,8.424,0,0,1,93.5,94.326Z" transform="translate(-57.731 -21.927)" fill="#1c1c1c"/>
      <path id="Path_529" data-name="Path 529" d="M172.168,83.035l-5.2-7.187v7.187h-4.878V60.272h4.878V73.9l4.878-7.122h5.691l-5.919,8.13,6.081,8.13Z" transform="translate(-110.033 -2.507)" fill="#1c1c1c"/>
      <path id="Path_530" data-name="Path 530" d="M230.032,98.554a4.245,4.245,0,0,0,3.122-1.236l3.9,2.244a8.251,8.251,0,0,1-7.089,3.35c-5.561,0-9.008-3.74-9.008-8.586a8.336,8.336,0,0,1,8.65-8.585c4.748,0,8.26,3.675,8.26,8.585a9.448,9.448,0,0,1-.195,1.951H226.129C226.747,97.968,228.244,98.554,230.032,98.554Zm2.992-5.919a3.663,3.663,0,0,0-6.991,0Z" transform="translate(-154.924 -21.927)" fill="#1c1c1c"/>
      <path id="Path_531" data-name="Path 531" d="M296.893,77.722v5.756c0,1.4,1.2,1.528,3.349,1.4V89.3c-6.374.65-8.227-1.268-8.227-5.821V77.722h-2.6V73.04h2.6V69.95l4.878-1.463V73.04h3.349v4.683Z" transform="translate(-207.12 -8.771)" fill="#1c1c1c"/>
      <path id="Path_532" data-name="Path 532" d="M357.291,74.905c0,4.846-3.512,8.586-7.772,8.586a6.109,6.109,0,0,1-4.845-1.984v1.528H339.8V60.272h4.878V68.3a6.108,6.108,0,0,1,4.845-1.984C353.779,66.321,357.291,70.06,357.291,74.905Zm-4.878,0a3.871,3.871,0,1,0-3.87,3.968A3.713,3.713,0,0,0,352.414,74.905Z" transform="translate(-245.538 -2.507)" fill="#1c1c1c"/>
      <path id="Path_533" data-name="Path 533" d="M414.822,94.326a8.618,8.618,0,1,1,8.617,8.586A8.522,8.522,0,0,1,414.822,94.326Zm12.357,0a3.741,3.741,0,1,0-3.74,3.837A3.647,3.647,0,0,0,427.179,94.326Z" transform="translate(-302.746 -21.927)" fill="#1c1c1c"/>
      <path id="Path_534" data-name="Path 534" d="M491.5,103.917l-3.024-4.293-3.024,4.293h-5.593l5.821-8.26-5.626-8h5.593l2.83,4.033,2.829-4.033H496.9l-5.626,8,5.821,8.26Z" transform="translate(-352.335 -23.388)" fill="#1c1c1c"/>
      <path id="Path_535" data-name="Path 535" d="M555.838,135.112a3.09,3.09,0,1,1,3.089,3.09A3.109,3.109,0,0,1,555.838,135.112Z" transform="translate(-410.272 -57.217)" fill="#1c1c1c"/>
      <path id="Path_536" data-name="Path 536" d="M563.8,87.657v9.134h-4.564V87.657Zm-3.711,5a.915.915,0,0,0,.367.806.827.827,0,0,0-.367.728.854.854,0,0,0,.334.745h-.256v.834h2.78v-.834h-1.568c-.328,0-.523-.156-.523-.434s.178-.4.456-.4h1.635V93.27h-1.568c-.328,0-.523-.156-.523-.434s.178-.4.456-.4h1.635V91.6h-1.707A1.04,1.04,0,0,0,560.091,92.658Zm.078-3.145h1.518c.4,0,.573.211.573.517a.459.459,0,0,1-.506.484h-1.585v.834h1.707a1.04,1.04,0,0,0,1.151-1.04.951.951,0,0,0-.339-.8h.261v-.834h-2.78Z" transform="translate(-412.865 -23.388)" fill="#1c1c1c"/>
    </g>
  </g>
</svg>
